<svg xmlns="http://www.w3.org/2000/svg" fill="none" viewBox="0 0 24 24">
  <path fill="#1C274C" fill-rule="evenodd" d="M12 1.25c.4142 0 .75.33579.75.75v1c0 .41421-.3358.75-.75.75s-.75-.33579-.75-.75V2c0-.41421.3358-.75.75-.75ZM4.39861 4.39861c.29289-.29289.76777-.29289 1.06066 0l.39284.39284c.29289.29289.29289.76776 0 1.06066-.2929.29289-.76777.29289-1.06066 0l-.39284-.39284c-.29289-.29289-.29289-.76777 0-1.06066Zm15.20249.00026c.2929.29289.2929.76777 0 1.06066l-.3928.39284c-.2929.29289-.7678.29289-1.0607 0-.2929-.2929-.2929-.76777 0-1.06066l.3929-.39284c.2929-.29289.7677-.29289 1.0606 0ZM12 6.75c-2.8995 0-5.25 2.3505-5.25 5.25s2.3505 5.25 5.25 5.25 5.25-2.3505 5.25-5.25S14.8995 6.75 12 6.75ZM5.25 12c0-3.72792 3.02208-6.75 6.75-6.75 3.7279 0 6.75 3.02208 6.75 6.75 0 3.7279-3.0221 6.75-6.75 6.75-3.72792 0-6.75-3.0221-6.75-6.75Zm-4 0c0-.4142.33579-.75.75-.75h1c.41421 0 .75.3358.75.75s-.33579.75-.75.75H2c-.41421 0-.75-.3358-.75-.75Zm19 0c0-.4142.3358-.75.75-.75h1c.4142 0 .75.3358.75.75s-.3358.75-.75.75h-1c-.4142 0-.75-.3358-.75-.75Zm-2.1024 6.1476c.2929-.2929.7678-.2929 1.0607 0l.3928.3929c.2929.2929.2929.7677 0 1.0606-.2929.2929-.7677.2929-1.0606 0l-.3929-.3928c-.2929-.2929-.2929-.7678 0-1.0607Zm-12.29549.0003c.29289.2929.29289.7678 0 1.0607l-.39284.3928c-.29289.2929-.76777.2929-1.06066 0s-.29289-.7678 0-1.0607l.39284-.3928c.29289-.2929.76776-.2929 1.06066 0ZM12 20.25c.4142 0 .75.3358.75.75v1c0 .4142-.3358.75-.75.75s-.75-.3358-.75-.75v-1c0-.4142.3358-.75.75-.75Z" clip-rule="evenodd"/>
</svg>