<svg xmlns="http://www.w3.org/2000/svg" fill="none" viewBox="0 -4 28 28">
  <g clip-path="url(#a)">
    <rect width="28" height="20" fill="#fff" rx="2"/>
    <mask id="b" width="28" height="20" x="0" y="0" maskUnits="userSpaceOnUse" style="mask-type:alpha">
      <rect width="28" height="20" fill="#fff" rx="2"/>
    </mask>
    <g mask="url(#b)">
      <path fill="#D02F44" fill-rule="evenodd" d="M28 0H0v1.33333h28V0Zm0 2.66667H0V4h28V2.66667ZM0 5.33333h28v1.33334H0V5.33333ZM28 8H0v1.33333h28V8ZM0 10.6667h28V12H0v-1.3333Zm28 2.6666H0v1.3334h28v-1.3334ZM0 16h28v1.3333H0V16Zm28 2.6667H0V20h28v-1.3333Z" clip-rule="evenodd"/>
      <path fill="#46467F" d="M0 0h12v9.33333H0z"/>
      <g filter="url(#c)">
        <path fill="url(#d)" fill-rule="evenodd" d="M2.66665 1.99999c0 .36819-.29848.66667-.66667.66667-.36819 0-.66667-.29848-.66667-.66667 0-.36818.29848-.66666.66667-.66666.36819 0 .66667.29848.66667.66666Zm2.66666 0c0 .36819-.29847.66667-.66666.66667s-.66667-.29848-.66667-.66667c0-.36818.29848-.66666.66667-.66666.36819 0 .66666.29848.66666.66666Zm2 .66667c.36819 0 .66667-.29848.66667-.66667 0-.36818-.29848-.66666-.66667-.66666-.36819 0-.66666.29848-.66666.66666 0 .36819.29847.66667.66666.66667Zm3.33329-.66667c0 .36819-.2984.66667-.66662.66667-.36819 0-.66667-.29848-.66667-.66667 0-.36818.29848-.66666.66667-.66666.36822 0 .66662.29848.66662.66666Zm-7.33329 2c.36819 0 .66667-.29847.66667-.66666s-.29848-.66667-.66667-.66667c-.36819 0-.66666.29848-.66666.66667 0 .36819.29847.66666.66666.66666Zm3.33334-.66666c0 .36819-.29848.66666-.66667.66666-.36819 0-.66667-.29847-.66667-.66666s.29848-.66667.66667-.66667c.36819 0 .66667.29848.66667.66667Zm2 .66666c.36819 0 .66666-.29847.66666-.66666s-.29847-.66667-.66666-.66667-.66667.29848-.66667.66667c0 .36819.29848.66666.66667.66666Zm1.99995.66667c0 .36819-.2984.66667-.66662.66667-.36819 0-.66667-.29848-.66667-.66667 0-.36819.29848-.66667.66667-.66667.36822 0 .66662.29848.66662.66667Zm-3.33329.66667c.36819 0 .66667-.29848.66667-.66667 0-.36819-.29848-.66667-.66667-.66667-.36819 0-.66666.29848-.66666.66667 0 .36819.29847.66667.66666.66667Zm-2-.66667c0 .36819-.29847.66667-.66666.66667s-.66667-.29848-.66667-.66667c0-.36819.29848-.66667.66667-.66667.36819 0 .66666.29848.66666.66667Zm-3.33333.66667c.36819 0 .66667-.29848.66667-.66667 0-.36819-.29848-.66667-.66667-.66667-.36819 0-.66667.29848-.66667.66667 0 .36819.29848.66667.66667.66667Zm2 .66666c0 .3682-.29848.66667-.66667.66667-.36819 0-.66666-.29847-.66666-.66667 0-.36819.29847-.66666.66666-.66666s.66667.29847.66667.66666Zm2 .66667c.36819 0 .66667-.29847.66667-.66667 0-.36819-.29848-.66666-.66667-.66666-.36819 0-.66667.29847-.66667.66666 0 .3682.29848.66667.66667.66667Zm3.33333-.66667c0 .3682-.29847.66667-.66666.66667s-.66667-.29847-.66667-.66667c0-.36819.29848-.66666.66667-.66666.36819 0 .66666.29847.66666.66666ZM9.99998 8c.36822 0 .66662-.29848.66662-.66667 0-.36819-.2984-.66667-.66662-.66667-.36819 0-.66667.29848-.66667.66667 0 .36819.29848.66667.66667.66667Zm-2-.66667c0 .36819-.29848.66667-.66667.66667-.36819 0-.66666-.29848-.66666-.66667 0-.36819.29847-.66667.66666-.66667s.66667.29848.66667.66667ZM4.66665 8c.36819 0 .66666-.29848.66666-.66667 0-.36819-.29847-.66667-.66666-.66667s-.66667.29848-.66667.66667c0 .36819.29848.66667.66667.66667Zm-2-.66667c0 .36819-.29848.66667-.66667.66667-.36819 0-.66667-.29848-.66667-.66667 0-.36819.29848-.66667.66667-.66667.36819 0 .66667.29848.66667.66667Z" clip-rule="evenodd"/>
      </g>
    </g>
  </g>
  <defs>
    <linearGradient id="d" x1="1.33331" x2="1.33331" y1="1.33333" y2="7.99999" gradientUnits="userSpaceOnUse">
      <stop stop-color="#fff"/>
      <stop offset="1" stop-color="#F0F0F0"/>
    </linearGradient>
    <clipPath id="a">
      <rect width="28" height="20" fill="#fff" rx="2"/>
    </clipPath>
    <filter id="c" width="9.33331" height="7.66667" x="1.33331" y="1.33333" color-interpolation-filters="sRGB" filterUnits="userSpaceOnUse">
      <feFlood flood-opacity="0" result="BackgroundImageFix"/>
      <feColorMatrix in="SourceAlpha" result="hardAlpha" values="0 0 0 0 0 0 0 0 0 0 0 0 0 0 0 0 0 0 127 0"/>
      <feOffset dy="1"/>
      <feColorMatrix values="0 0 0 0 0 0 0 0 0 0 0 0 0 0 0 0 0 0 0.06 0"/>
      <feBlend in2="BackgroundImageFix" result="effect1_dropShadow_503_3486"/>
      <feBlend in="SourceGraphic" in2="effect1_dropShadow_503_3486" result="shape"/>
    </filter>
  </defs>
</svg>